<svg height="18" viewBox="0 0 18 18" width="18" xmlns="http://www.w3.org/2000/svg"><path d="m12.864494 12.8207547h-.813036l-.2881647-.2778731c1.0085763-1.1732418 1.6157805-2.6963979 1.6157805-4.35334472 0-3.69468268-2.9948542-6.68953688-6.68953692-6.68953688-3.69468268 0-6.68953688 2.9948542-6.68953688 6.68953688 0 3.69468272 2.9948542 6.68953692 6.68953688 6.68953692 1.65694682 0 3.18010291-.6072042 4.35334472-1.6157805l.2778731.2881647v.813036l5.1457976 5.135506 1.5334477-1.5334477zm-6.17495712 0c-2.56260721 0-4.63121784-2.0686106-4.63121784-4.63121782 0-2.56260721 2.06861063-4.63121784 4.63121784-4.63121784 2.5626072 0 4.63121782 2.06861063 4.63121782 4.63121784 0 2.56260722-2.06861062 4.63121782-4.63121782 4.63121782z" fill="#607282" transform="translate(0 -1.5)"/></svg>