<svg height="13" viewBox="0 0 18 13" width="18" xmlns="http://www.w3.org/2000/svg"><g fill="none" fill-rule="evenodd" transform="translate(0 .5)"><rect height="12" rx="2" stroke="#929fac" width="17" x=".5"/><path d="m5.054 8.104c.46933333 0 .86933333-.10666667 1.2-.32s.576-.568.736-1.064h-1c-.03733333.128-.13866667.24933333-.304.364s-.36266667.172-.592.172c-.32 0-.56533333-.08266667-.736-.248s-.264-.432-.28-.8h2.984c.02133333-.32-.00533333-.62666667-.08-.92s-.196-.55466667-.364-.784-.38266667-.412-.644-.548-.568-.204-.92-.204c-.31466667 0-.60133333.056-.86.168s-.48133333.26533333-.668.46-.33066667.42533333-.432.692-.152.55466667-.152.864c0 .32.04933333.61333333.148.88s.23866667.496.42.688.40266667.34.664.444.55466667.156.88.156zm.872-2.616h-1.848c.00533333-.08.02266667-.17066667.052-.272s.08-.19733333.152-.288.168-.16666667.288-.228.27066667-.092.452-.092c.27733333 0 .484.07466667.62.224s.23066667.368.284.656zm3.252 2.616c.23466667 0 .46533333-.02266667.692-.068.2266667-.04533333.428-.124.604-.236s.3186667-.26.428-.444.164-.412.164-.684c0-.192-.0373333-.35333333-.112-.484s-.1733333-.24-.296-.328-.2626667-.15866667-.42-.212-.31866667-.09866667-.484-.136c-.16-.03733333-.31733333-.072-.472-.104s-.292-.068-.412-.108-.21733333-.092-.292-.156-.112-.14666667-.112-.248c0-.08533333.02133333-.15333333.064-.204s.09466667-.08933333.156-.116.12933333-.044.204-.052.144-.012.208-.012c.20266667 0 .37866667.03866667.528.116s.232.22533333.248.444h1.08c-.0213333-.256-.0866667-.468-.196-.636s-.2466667-.30266667-.412-.404-.35333333-.17333333-.564-.216-.428-.064-.652-.064-.44266667.02-.656.06-.40533333.10933333-.576.208-.308.23333333-.412.404-.156.38933333-.156.656c0 .18133333.03733333.33466667.112.46s.17333333.22933333.296.312.26266667.14933333.42.2.31866667.09466667.484.132c.40533333.08533333.72133333.17066667.948.256s.34.21333333.34.384c0 .10133333-.024.18533333-.072.252s-.108.12-.18.16-.152.06933333-.24.088-.172.028-.252.028c-.112 0-.22-.01333333-.324-.04s-.196-.068-.276-.124-.14533333-.128-.196-.216-.076-.19333333-.076-.316h-1.08c.01066667.27733333.07333333.508.188.692s.26133333.332.44.444.38266667.192.612.24.464.072.704.072zm4.212 0c.5493333 0 1-.144 1.352-.432s.5653333-.70666667.64-1.256h-1.096c-.0373333.256-.1293333.46-.276.612s-.356.228-.628.228c-.176 0-.3253333-.04-.448-.12s-.22-.18266667-.292-.308-.124-.26533333-.156-.42-.048-.30666667-.048-.456c0-.15466667.016-.31066667.048-.468s.0866667-.30133333.164-.432.1773333-.23733333.3-.32.2746667-.124.456-.124c.4853333 0 .7653333.23733333.84.712h1.112c-.016-.26666667-.08-.49733333-.192-.692s-.2573333-.35733333-.436-.488-.3813333-.228-.608-.292-.4626667-.096-.708-.096c-.336 0-.6346667.056-.896.168s-.4826667.268-.664.468-.3186667.43733333-.412.712-.14.572-.14.892c0 .30933333.0506667.59333333.152.852s.2426667.48133333.424.668.4013333.332.66.436.5426667.156.852.156z" fill="#000" fill-rule="nonzero"/></g></svg>
