<svg height="16" viewBox="0 0 16 16" width="16" xmlns="http://www.w3.org/2000/svg"><path d="m8 4.36363636c-2.00727273 0-3.63636364 1.62909091-3.63636364 3.63636364 0 2.0072727 1.62909091 3.6363636 3.63636364 3.6363636 2.0072727 0 3.6363636-1.6290909 3.6363636-3.6363636 0-2.00727273-1.6290909-3.63636364-3.6363636-3.63636364zm-7.27272727 4.36363637h1.45454545c.4 0 .72727273-.32727273.72727273-.72727273s-.32727273-.72727273-.72727273-.72727273h-1.45454545c-.4 0-.72727273.32727273-.72727273.72727273s.32727273.72727273.72727273.72727273zm13.09090907 0h1.4545455c.4 0 .7272727-.32727273.7272727-.72727273s-.3272727-.72727273-.7272727-.72727273h-1.4545455c-.4 0-.7272727.32727273-.7272727.72727273s.3272727.72727273.7272727.72727273zm-6.54545453-8v1.45454545c0 .4.32727273.72727273.72727273.72727273s.72727273-.32727273.72727273-.72727273v-1.45454545c0-.4-.32727273-.72727273-.72727273-.72727273s-.72727273.32727273-.72727273.72727273zm0 13.09090907v1.4545455c0 .4.32727273.7272727.72727273.7272727s.72727273-.3272727.72727273-.7272727v-1.4545455c0-.4-.32727273-.7272727-.72727273-.7272727s-.72727273.3272727-.72727273.7272727zm-3.64363636-11.21454544c-.28363636-.28363636-.74909091-.28363636-1.02545455 0-.28363636.28363637-.28363636.74909091 0 1.02545455l.77090909.77090909c.28363637.28363636.74909091.28363636 1.02545455 0s.28363636-.74909091 0-1.02545455zm8.99636359 8.99636364c-.2836363-.2836364-.7490909-.2836364-1.0254545 0-.2836364.2836364-.2836364.7490909 0 1.0254545l.7709091.7709091c.2836364.2836364.7490909.2836364 1.0254545 0 .2836364-.2836363.2836364-.7490909 0-1.0254545zm.7709091-7.97090909c.2836364-.28363636.2836364-.74909091 0-1.02545455-.2836363-.28363636-.7490909-.28363636-1.0254545 0l-.7709091.77090909c-.2836364.28363637-.2836364.74909091 0 1.02545455s.7490909.28363636 1.0254545 0zm-8.9963636 8.99636359c.28363636-.2836363.28363636-.7490909 0-1.0254545-.28363636-.2836364-.74909091-.2836364-1.02545455 0l-.77090909.7709091c-.28363636.2836364-.28363636.7490909 0 1.0254545.28363637.2763637.74909091.2836364 1.02545455 0z" fill="#000"/></svg>
