<svg height="15" viewBox="0 0 14 15" width="14" xmlns="http://www.w3.org/2000/svg"><path d="m10.0057176 10.3050314h-.6323614l-.22412807-.2161235c.78444826-.91252139 1.25671817-2.09719835 1.25671817-3.38593477 0-2.87364208-2.32933109-5.20297313-5.20297317-5.20297313s-5.20297313 2.32933105-5.20297313 5.20297313 2.32933105 5.20297317 5.20297313 5.20297317c1.28873642 0 2.47341338-.4722699 3.38593482-1.2567182l.2161235.2241281v.6323614l4.00228705 3.9942824 1.1926815-1.1926815zm-4.80274447 0c-1.99313894 0-3.60205832-1.60891934-3.60205832-3.60205827 0-1.99313894 1.60891938-3.60205832 3.60205832-3.60205832 1.99313893 0 3.60205832 1.60891938 3.60205832 3.60205832 0 1.99313893-1.60891939 3.60205827-3.60205832 3.60205827z" transform="translate(0 -1)"/></svg>