<svg height="30" viewBox="0 0 172 30" width="172" xmlns="http://www.w3.org/2000/svg"><g fill="none" fill-rule="evenodd" transform="translate(1 1)"><g fill="#000" fill-rule="nonzero" transform="translate(119.471 3.9)"><path d="m11.776 16.422h-2.484v-1.61h-.046c-.35266667.69-.86633333 1.1845-1.541 1.4835s-1.38766667.4485-2.139.4485c-.93533333 0-1.75183333-.1648333-2.4495-.4945s-1.2765-.7781667-1.7365-1.3455-.805-1.2381667-1.035-2.0125-.345-1.6061667-.345-2.4955c0-1.07333333.14566667-2.001.437-2.783s.6785-1.426 1.1615-1.932 1.035-.87783333 1.656-1.1155 1.2535-.3565 1.8975-.3565c.368 0 .74366667.0345 1.127.1035s.75133333.18016667 1.104.3335.6785.34883333.9775.5865.54816667.5175.7475.8395h.046v-6.072h2.622zm-9.154-5.819c0 .506.06516667 1.0043333.1955 1.495s.32966667.9276667.598 1.311.6095.69 1.0235.92.90466667.345 1.472.345c.58266667 0 1.08483333-.1226667 1.5065-.368s.76666667-.5673333 1.035-.966.46766667-.8471667.598-1.3455.1955-1.0081667.1955-1.5295c0-1.31866667-.29516667-2.346-.8855-3.082s-1.3915-1.104-2.4035-1.104c-.61333333 0-1.13083333.1265-1.5525.3795s-.76666667.58266667-1.035.989-.46.86633333-.575 1.38-.1725 1.0388333-.1725 1.5755z"/><path d="m20.079 16.744c-.9506667 0-1.7978333-.1571667-2.5415-.4715s-1.3723333-.7475-1.886-1.2995-.9046667-1.2113333-1.173-1.978-.4025-1.61-.4025-2.53c0-.90466667.1341667-1.74033333.4025-2.507s.6593333-1.426 1.173-1.978 1.1423333-.98516667 1.886-1.2995 1.5908333-.4715 2.5415-.4715 1.7978333.15716667 2.5415.4715 1.3723333.7475 1.886 1.2995.9046667 1.21133333 1.173 1.978.4025 1.60233333.4025 2.507c0 .92-.1341667 1.7633333-.4025 2.53s-.6593333 1.426-1.173 1.978-1.1423333.9851667-1.886 1.2995-1.5908333.4715-2.5415.4715zm0-2.07c.5826667 0 1.0886667-.1226667 1.518-.368s.782-.5673333 1.058-.966.4791667-.8471667.6095-1.3455.1955-1.0081667.1955-1.5295c0-.506-.0651667-1.012-.1955-1.518s-.3335-.9545-.6095-1.3455-.6286667-.70916667-1.058-.9545-.9353333-.368-1.518-.368-1.0886667.12266667-1.518.368-.782.5635-1.058.9545-.4791667.8395-.6095 1.3455-.1955 1.012-.1955 1.518c0 .5213333.0651667 1.0311667.1955 1.5295s.3335.9468333.6095 1.3455.6286667.7206667 1.058.966.9353333.368 1.518.368z"/><path d="m36.294 8.51c-.1073333-.736-.4025-1.29183333-.8855-1.6675s-1.0925-.5635-1.8285-.5635c-.3373333 0-.6976667.0575-1.081.1725s-.736.32966667-1.058.644-.5903333.75133333-.805 1.311-.322 1.29183333-.322 2.1965c0 .4906667.0575.9813333.1725 1.472s.299.9276667.552 1.311.5788333.6938333.9775.9315.8816667.3565 1.449.3565c.7666667 0 1.3991667-.2376667 1.8975-.713s.8088333-1.1423333.9315-2.001h2.622c-.2453333 1.5486667-.8318333 2.7331667-1.7595 3.5535s-2.1581667 1.2305-3.6915 1.2305c-.9353333 0-1.7595-.1571667-2.4725-.4715s-1.3148333-.7436667-1.8055-1.288-.8625-1.1921667-1.1155-1.9435-.3795-1.564-.3795-2.438c0-.88933333.1226667-1.725.368-2.507s.6133333-1.4605 1.104-2.0355 1.1001667-1.02733333 1.8285-1.357 1.5831667-.4945 2.5645-.4945c.69 0 1.3455.08816667 1.9665.2645s1.173.44083333 1.656.7935.8778333.79733333 1.1845 1.334.4906667 1.173.552 1.909z"/><path d="m43.033 12.604c.0766667.7666667.368 1.3033333.874 1.61s1.1116667.46 1.817.46c.2453333 0 .5251667-.0191667.8395-.0575s.6095-.1111667.8855-.2185.5021667-.2645.6785-.4715.2568333-.4791667.2415-.8165-.138-.6133333-.368-.828-.5251667-.3871667-.8855-.5175-.7705-.2415-1.2305-.3335-.9276667-.1916667-1.403-.299c-.4906667-.1073333-.9621667-.2376667-1.4145-.391s-.8586667-.3603333-1.219-.621c-.3603333-.26066667-.6478333-.59416667-.8625-1.0005s-.322-.9085-.322-1.5065c0-.644.1571667-1.1845.4715-1.6215s.713-.78966667 1.196-1.058 1.0196667-.45616667 1.61-.5635 1.1538333-.161 1.6905-.161c.6133333 0 1.1998333.06516667 1.7595.1955s1.0656667.34116667 1.518.6325.828.67083333 1.127 1.1385.4868333 1.03116667.5635 1.6905h-2.737c-.1226667-.62866667-.4101667-1.05033333-.8625-1.265s-.9698333-.322-1.5525-.322c-.184 0-.4025.01533333-.6555.046s-.4906667.08816667-.713.1725-.4101667.207-.5635.368-.23.37183333-.23.6325c0 .322.1111667.58266667.3335.782s.5136667.36416667.874.4945.7705.2415 1.2305.3335.9353333.19166667 1.426.299c.4753333.10733333.943.23766667 1.403.391s.8701667.3603333 1.2305.621.6516667.5903333.874.989.3335.8893333.3335 1.472c0 .7053333-.161 1.3033333-.483 1.794s-.7398333.8893333-1.2535 1.196-1.0848333.529-1.7135.667-1.2496667.207-1.863.207c-.7513333 0-1.4451667-.0843333-2.0815-.253s-1.1883333-.4255-1.656-.7705-.8356667-.7743333-1.104-1.288-.4101667-1.1231667-.4255-1.8285z"/></g><path d="m105.166 3.822v21" stroke="#000" stroke-linecap="square" stroke-opacity=".15"/><path d="m10.292356.30298061-10.292356 27.69652029h7.8705077l1.36216486-3.9347548h6.05412154v3.9347548h7.7187678v-27.69652029zm4.8431973 15.74051629h-3.178551l3.178551-6.65958361zm30.7238306-16.0434969h-12.2594837c-4.0869938 0-5.4486595 5.29741871-5.4486595 5.29741871l-2.8755704 16.49721909s-1.0596834 6.2053622 4.2377353 6.2053622h11.5027809l1.2109242-8.17249h-6.2053623s-2.7243297.605462-2.2701084-2.4218483c.1512408-.4542213 1.2109242-6.5083428 1.2109242-6.5083428s.3024814-2.11886767 1.6646463-2.11886767h7.7187678zm3.6327724.15173988-5.75164 27.84776102h7.5680262l2.5725898-11.8047633.6054621 11.8047633h4.0869937l4.5397177-11.8047633-2.2701084 11.8047633h6.8103251l5.6008985-27.9995009h-9.6863948l-4.6924557 11.6540217v-11.50228182zm21.9458785 27.84776102 5.2964204-27.9995009h15.5897747l-1.2109241 8.02224758h-8.1724901l-.4542213 2.72383062h7.8700086l-1.210425 6.0541215-8.0217485-.1512408-.4542213 2.7238306h8.0212493l-1.6646463 8.6267114z" fill="#738aa3" fill-rule="nonzero"/></g></svg>