<svg height="27" viewBox="0 0 87 27" width="87" xmlns="http://www.w3.org/2000/svg"><path d="m9.55718768 1.45933913-9.55718768 25.71819737h7.30832858l1.26486737-3.6537008h5.62168425v3.6537008h7.1674273v-25.71819737zm4.49725472 14.61619367h-2.9515117l2.9515117-6.18389903zm28.5292712-14.8975328h-11.3838063c-3.7950656 0-5.0594695 4.91903166-5.0594695 4.91903166l-2.6701725 15.31884624s-.9839918 5.7621221 3.9350399 5.7621221h10.6811537l1.1244296-7.5887407h-5.7621221s-2.5297347.5622147-2.1079578-2.2488591c.1404378-.421777 1.1244296-6.0434612 1.1244296-6.0434612s.2808756-1.96752 1.545743-1.96752h7.1674272zm3.3732887.14090131-5.3408086 25.85863519h7.0274529l2.3888334-10.9615659.5622148 10.9615659h3.7950656l4.2154521-10.9615659-2.1079578 10.9615659h6.3238734l5.2008343-25.9995365h-8.9945095l-4.3572803 10.8215916v-10.68069029zm20.3783157 25.85863519 4.9181047-25.9995365h14.4762193l-1.1244295 7.44922989h-7.5887407l-.421777 2.52927121h7.3078651l-1.1239661 5.6216843-7.4487664-.1404378-.4217769 2.5292712h7.4483029l-1.545743 8.0105177z" fill="#9fb0c2" transform="translate(.834 -1)"/></svg>