<svg height="24" viewBox="0 0 24 24" width="24" xmlns="http://www.w3.org/2000/svg"><g fill="none" fill-rule="evenodd"><path d="m0 0h24v24h-24z" fill="none"/><path d="m8.4 13.2c-1.32 0-2.4 1.08-2.4 2.4s1.08 2.4 2.4 2.4 2.4-1.08 2.4-2.4-1.08-2.4-2.4-2.4zm0-7.2c-1.32 0-2.4 1.08-2.4 2.4s1.08 2.4 2.4 2.4 2.4-1.08 2.4-2.4-1.08-2.4-2.4-2.4zm7.2 4.8c1.32 0 2.4-1.08 2.4-2.4s-1.08-2.4-2.4-2.4-2.4 1.08-2.4 2.4 1.08 2.4 2.4 2.4zm0 2.4c-1.32 0-2.4 1.08-2.4 2.4s1.08 2.4 2.4 2.4 2.4-1.08 2.4-2.4-1.08-2.4-2.4-2.4z" fill="#2275f1" fill-rule="nonzero"/></g></svg>