<svg height="38" viewBox="0 0 35 38" width="35" xmlns="http://www.w3.org/2000/svg"><path d="m31.35 2.85-2.85-2.85-2.85 2.85-2.85-2.85-2.85 2.85-2.85-2.85-2.85 2.85-2.85-2.85-2.85 2.85-2.85-2.85v26.6h-5.7v5.7c0 3.154 2.546 5.7 5.7 5.7h22.8c3.154 0 5.7-2.546 5.7-5.7v-32.3zm-8.55 31.35h-17.1c-1.045 0-1.9-.855-1.9-1.9v-1.9h19zm7.6-1.9c0 1.045-.855 1.9-1.9 1.9s-1.9-.855-1.9-1.9v-5.7h-17.1v-20.9h20.9z"/><path d="m11.4 9.5h11.4v3.8h-11.4z"/><path d="m24.7 9.5h3.8v3.8h-3.8z"/><path d="m11.4 15.2h11.4v3.8h-11.4z"/><path d="m24.7 15.2h3.8v3.8h-3.8z"/></svg>