<svg height="38" viewBox="0 0 38 38" width="38" xmlns="http://www.w3.org/2000/svg"><path d="m40.6328709 30.8227273-6.1145455 6.1145454c-5.7345454 5.7345455-5.7345454 15.0272728 0 20.7618182 5.7345455 5.7345455 15.0272728 5.7345455 20.7618182 0l10.3809091-10.3809091c1.6754546-1.6754545 1.6754546-4.4218182 0-6.1145454-.2072727-.2072728-.4318182-.3972728-.6736364-.5527273l.6736364-.6736364c1.6754546-1.6754545 1.6754546-4.4218182 0-6.1145454-.2763636-.2763637-.6045454-.5181818-.9327273-.7081818.6909091-1.589091.3972728-3.489091-.8981818-4.7845455-1.5027273-1.5027273-3.8345454-1.6581818-5.5272727-.4836364-.1727273-.2590909-.3627273-.5009091-.5872727-.7254545-1.6754546-1.6754546-4.4218182-1.6754546-6.1145455 0l-4.3354545 4.3354545c-.1554546-.2418181-.3454546-.4663636-.5527273-.6736363-1.6754546-1.6754546-4.4045455-1.6754546-6.08 0zm2.4354545 2.4527272c.3454546-.3454545.8809091-.3454545 1.2263637 0 .3454545.3454546.3454545.8809091 0 1.2263637l-5.4927273 5.4927273c2.0209091 2.020909 2.0209091 5.3027272 0 7.3236363l2.4354545 2.4354546c2.5045455-2.5045455 3.1436364-6.1663637 1.9345455-9.2581819l10.8818182-10.8818181c.3454545-.3454546.8809091-.3454546 1.2263636 0 .3454546.3454545.3454546.8809091 0 1.2263636l-7.9454545 7.9454545 2.4354545 2.4354546 10.3809091-10.3809091c.3454546-.3454545.8809091-.3454545 1.2263636 0 .3454546.3454545.3454546.8809091 0 1.2263636l-10.380909 10.3809091 2.4354545 2.4354546 8.55-8.55c.3454545-.3454546.8809091-.3454546 1.2263636 0 .3454546.3454545.3454546.8809091 0 1.2263636l-9.7763636 9.7763636 2.4354545 2.4354546 6.1145455-6.1145455c.3454545-.3454545.8809091-.3454545 1.2263636 0 .3454546.3454546.3454546.8809091 0 1.2263637l-10.3636363 10.3809091c-4.3872728 4.3872727-11.4863637 4.3872727-15.8736364 0-4.3872727-4.3872728-4.3872727-11.4863637 0-15.8736364zm25.1490909 18.3609091c0 5.7172728-4.6463636 10.3636364-10.3636363 10.3636364v-2.5909091c4.2836363 0 7.7727273-3.4890909 7.7727273-7.7727273zm-38-17.2727272c0-5.7172728 4.6463637-10.3636364 10.3636364-10.3636364v2.5909091c-4.2836364 0-7.7727273 3.4890909-7.7727273 7.7727273z" transform="translate(-30.217416 -24)"/></svg>