<svg height="37" viewBox="0 0 34 37" width="34" xmlns="http://www.w3.org/2000/svg"><path d="m14.8 24.3645-4.0145-4.0145 4.0145-4.0145-2.6085-2.627-6.6415 6.6415 6.6415 6.6415z"/><path d="m21.1085 26.9915 6.6415-6.6415-6.6415-6.6415-2.6085 2.627 4.0145 4.0145-4.0145 4.0145z"/><path d="m29.6 3.7h-7.733c-.777-2.146-2.812-3.7-5.217-3.7s-4.44 1.554-5.217 3.7h-7.733c-.259 0-.4995.0185-.74.074-.7215.148-1.369.518-1.8685 1.0175-.333.333-.6105.74-.7955 1.184-.185.4255-.296.9065-.296 1.4245v18.5 1.85 5.55c0 .4995.111.999.296 1.443s.4625.8325.7955 1.184c.4995.4995 1.147.8695 1.8685 1.0175.2405.037.481.0555.74.0555h25.9c2.035 0 3.7-1.665 3.7-3.7v-5.55-1.85-18.5c0-2.035-1.665-3.7-3.7-3.7zm-12.95-.4625c.7585 0 1.3875.629 1.3875 1.3875s-.629 1.3875-1.3875 1.3875-1.3875-.629-1.3875-1.3875.629-1.3875 1.3875-1.3875zm12.95 22.6625v1.85 5.55h-25.9v-5.55-1.85-18.5h25.9z"/></svg>