<svg height="25" viewBox="0 0 25 25" width="25" xmlns="http://www.w3.org/2000/svg"><g fill="none" fill-rule="evenodd" transform="translate(.5 .5)"><path d="m0 0h24v24h-24z" fill="none"/><path d="m11.8461538 4.34615385c.2584616 0 .4615385.20307692.4615385.46153846v1.84615384h5.5384615v5.53846155h1.8461539c.2584615 0 .4615385.2030769.4615385.4615385 0 .2584615-.203077.4615384-.4615385.4615384h-1.8461539v5.5384616h-1.956923c-.6276923-1.6153847-2.2061539-2.7692308-4.043077-2.7692308-1.836923 0-3.41538457 1.1538461-4.04307688 2.7692308h-1.95692307v-1.9569231c1.61538461-.6276923 2.76923077-2.2061539 2.76923077-4.0430769 0-1.8369231-1.14461539-3.41538466-2.76-4.04307697l-.00923077-1.95692308h5.53846155v-1.84615384c0-.25846154.2030769-.46153846.4615384-.46153846m0-1.84615385c-1.2738461 0-2.30769226 1.03384615-2.30769226 2.30769231h-3.69230769c-1.01538462 0-1.83692308.83076923-1.83692308 1.84615384v3.50769235h.26769231c1.37538461 0 2.49230769 1.116923 2.49230769 2.4923077 0 1.3753846-1.11692308 2.4923076-2.49230769 2.4923076h-.27692308v3.5076924c0 1.0153846.83076923 1.8461538 1.84615385 1.8461538h3.5076923v-.2769231c0-1.3753846 1.11692305-2.4923077 2.49230765-2.4923077 1.3753847 0 2.4923077 1.1169231 2.4923077 2.4923077v.2769231h3.5076923c1.0153847 0 1.8461539-.8307692 1.8461539-1.8461538v-3.6923077c1.2738461 0 2.3076923-1.0338462 2.3076923-2.3076923 0-1.2738462-1.0338462-2.3076924-2.3076923-2.3076924v-3.69230765c0-1.01538461-.8307692-1.84615384-1.8461539-1.84615384h-3.6923076c0-1.27384616-1.0338462-2.30769231-2.3076924-2.30769231z" fill="#000" fill-rule="nonzero"/></g></svg>