<svg height="25" viewBox="0 0 24 25" width="24" xmlns="http://www.w3.org/2000/svg"><g fill="none" fill-rule="evenodd"><path d="m0 .75h24v24h-24z" fill="none"/><g transform="translate(1.25 5.25)"><rect height="15" rx="1" stroke="#000" stroke-width="1.5" width="22"/><path d="m3.438 10.4v-2.464h2.312v2.464h1.256v-5.712h-1.256v2.192h-2.312v-2.192h-1.256v5.712zm6.492 0v-4.656h1.712v-1.056h-4.68v1.056h1.712v4.656zm4.188 0v-4.656h1.712v-1.056h-4.68v1.056h1.712v4.656zm2.924 0v-2.048h1.32c.3573333 0 .6613333-.052.912-.156s.4546667-.24133333.612-.412.272-.36666667.344-.588.108-.44666667.108-.676c0-.23466667-.036-.46133333-.108-.68s-.1866667-.41333333-.344-.584-.3613333-.308-.612-.412-.5546667-.156-.912-.156h-2.576v5.712zm.976-3.024h-.976v-1.712h.976c.144 0 .2826667.01066667.416.032s.2506667.06266667.352.124.1826667.148.244.26.092.25866667.092.44-.0306667.328-.092.44-.1426667.19866667-.244.26-.2186667.10266667-.352.124-.272.032-.416.032z" fill="#000" fill-rule="nonzero"/></g></g></svg>