<svg height="24" viewBox="0 0 24 24" width="24" xmlns="http://www.w3.org/2000/svg"><g fill="none" fill-rule="evenodd"><path d="m0 .75h24v23.04h-24z" fill="none"/><g transform="translate(1 4.75)"><rect height="15" rx="1" stroke="#000" stroke-width="1.5" width="22"/><path d="m5.64 10.4.952-3.888h.016l.968 3.888h1.248l1.536-5.712h-1.232l-.936 3.936h-.016l-.976-3.936h-1.176l-.992 3.888h-.016l-.904-3.888h-1.256l1.512 5.712zm6.668.128c.3893333 0 .732-.0453333 1.028-.136s.544-.2173333.744-.38c.2-.16266667.3506667-.356.452-.58s.152-.46666667.152-.728c0-.32-.068-.58266667-.204-.788s-.2973333-.36933333-.484-.492-.3746667-.212-.564-.268-.3373333-.09466667-.444-.116c-.3573333-.09066667-.6466667-.16533333-.868-.224s-.3946667-.11733333-.52-.176-.2093333-.12266667-.252-.192-.064-.16-.064-.272c0-.12266667.0266667-.224.08-.304s.1213333-.14666667.204-.2.1746667-.09066667.276-.112.2026667-.032.304-.032c.1546667 0 .2973333.01333333.428.04s.2466667.072.348.136.1826667.152.244.264.0973333.25333333.108.424h1.216c0-.33066667-.0626667-.612-.188-.844s-.2946667-.42266667-.508-.572-.4573333-.25733333-.732-.324-.5613333-.1-.86-.1c-.256 0-.512.03466667-.768.104s-.4853333.176-.688.32-.3666667.324-.492.54-.188.47066667-.188.764c0 .26133333.0493333.484.148.668s.228.33733333.388.46.3413333.22266667.544.3.4106667.14266667.624.196c.208.05866667.4133333.112.616.16s.384.104.544.168.2893333.144.388.24.148.22133333.148.376c0 .144-.0373333.26266667-.112.356s-.168.16666667-.28.22-.232.08933333-.36.108-.248.028-.36.028c-.1653333 0-.3253333-.02-.48-.06s-.2893333-.10133333-.404-.184-.2066667-.19066667-.276-.324-.104-.296-.104-.488h-1.216c-.00533333.352.05866667.656.192.912.1333333.256.3133333.46666667.54.632.2266667.1653333.488.2866667.784.364s.6013333.116.916.116zm4.492 0c.3893333 0 .732-.0453333 1.028-.136s.544-.2173333.744-.38c.2-.16266667.3506667-.356.452-.58s.152-.46666667.152-.728c0-.32-.068-.58266667-.204-.788s-.2973333-.36933333-.484-.492-.3746667-.212-.564-.268-.3373333-.09466667-.444-.116c-.3573333-.09066667-.6466667-.16533333-.868-.224s-.3946667-.11733333-.52-.176-.2093333-.12266667-.252-.192-.064-.16-.064-.272c0-.12266667.0266667-.224.08-.304s.1213333-.14666667.204-.2.1746667-.09066667.276-.112.2026667-.032.304-.032c.1546667 0 .2973333.01333333.428.04s.2466667.072.348.136.1826667.152.244.264.0973333.25333333.108.424h1.216c0-.33066667-.0626667-.612-.188-.844s-.2946667-.42266667-.508-.572-.4573333-.25733333-.732-.324-.5613333-.1-.86-.1c-.256 0-.512.03466667-.768.104s-.4853333.176-.688.32-.3666667.324-.492.54-.188.47066667-.188.764c0 .26133333.0493333.484.148.668s.228.33733333.388.46.3413333.22266667.544.3.4106667.14266667.624.196c.208.05866667.4133333.112.616.16s.384.104.544.168.2893333.144.388.24.148.22133333.148.376c0 .144-.0373333.26266667-.112.356s-.168.16666667-.28.22-.232.08933333-.36.108-.248.028-.36.028c-.1653333 0-.3253333-.02-.48-.06s-.2893333-.10133333-.404-.184-.2066667-.19066667-.276-.324-.104-.296-.104-.488h-1.216c-.0053333.352.0586667.656.192.912s.3133333.46666667.54.632c.2266667.1653333.488.2866667.784.364s.6013333.116.916.116z" fill="#000" fill-rule="nonzero"/></g></g></svg>